<svg xmlns="http://www.w3.org/2000/svg" width="178.921" height="25.479" viewBox="0 0 178.921 25.479">
    <defs>
        <clipPath id="h7udgkxdha">
            <path data-name="사각형 2" style="fill:#303348" d="M0 0h178.921v25.479H0z"/>
        </clipPath>
    </defs>
    <g data-name="그룹 2">
        <g data-name="그룹 1" style="clip-path:url(#h7udgkxdha)">
            <path data-name="패스 1" d="M0 .262h9.408c8.036 0 13.006 4.971 13.006 12.144S17.443 24.522 9.408 24.522H0zM9.5 19.73c4.644 0 7.5-2.648 7.5-7.324s-2.86-7.352-7.5-7.352H5.418V19.73z" transform="translate(0 .361)" style="fill:#303348"/>
            <path data-name="패스 2" d="M9.81.262h9.408c8.036 0 13.006 4.971 13.006 12.144s-4.971 12.116-13.006 12.116H9.81zm9.5 19.468c4.644 0 7.5-2.648 7.5-7.324s-2.858-7.352-7.5-7.352h-4.082V19.73z" transform="translate(13.554 .361)" style="fill:#303348"/>
            <path data-name="패스 3" d="M19.634 12.74C19.634 5.387 25.14 0 32.612 0c6.668 0 11.132 4.018 12.115 9.139H39.25c-.564-2.322-3.037-4.168-6.519-4.168a7.482 7.482 0 0 0-7.679 7.769 7.5 7.5 0 0 0 7.679 7.769c3.482 0 6.34-2.291 6.757-4.494h5.478c-.745 4.88-5.626 9.465-12.354 9.465-7.471 0-12.978-5.387-12.978-12.74" transform="translate(27.128 -.001)" style="fill:#303348"/>
            <path data-name="패스 4" d="M30.632 12.74C30.632 5.387 36.2 0 43.731 0s13.1 5.387 13.1 12.74-5.566 12.74-13.1 12.74-13.1-5.387-13.1-12.74m20.778 0a7.682 7.682 0 1 0-15.359 0 7.682 7.682 0 1 0 15.359 0" transform="translate(42.324 -.001)" style="fill:#303348"/>
            <path data-name="패스 5" d="m77.453.262-6.995 24.26H64.98L60.636 9.311l-4.347 15.211h-5.478L43.816.262h5.8l4.168 15.864L57.956.262h5.626l4.137 15.8 4.2-15.8z" transform="translate(60.54 .362)" style="fill:#303348"/>
            <path data-name="패스 6" d="M58.515.262h18.038v4.7h-12.62v4.94H75.51v4.7H63.933v5.209H76.82v4.7H58.515z" transform="translate(80.849 .362)" style="fill:#303348"/>
            <path data-name="패스 7" d="M66.688.262h10.537c5.387 0 8.424 2.8 8.424 7.233a4.82 4.82 0 0 1-2.827 4.318 5.767 5.767 0 0 1 3.958 5.357c0 4.494-3.215 7.352-8.662 7.352h-11.43zm10.3 9.824c2.053 0 3.244-.893 3.244-2.591s-1.191-2.62-3.244-2.62H72.1v5.211zm.893 9.822c2.144 0 3.482-.953 3.482-2.739s-1.339-2.739-3.482-2.739H72.1v5.478z" transform="translate(92.142 .361)" style="fill:#303348"/>
            <path data-name="사각형 1" transform="translate(99.885 20.49)" style="fill:#303348" d="M0 0h5.521v4.925H0z"/>
        </g>
    </g>
</svg>
